<?xml version="1.0" encoding="UTF-8" standalone="no"?>
<!-- Created with Inkscape (http://www.inkscape.org/) -->

<svg
   width="210mm"
   height="297mm"
   viewBox="0 0 210 297"
   version="1.1"
   id="svg1"
   xml:space="preserve"
   inkscape:version="1.3.2 (091e20e, 2023-11-25, custom)"
   sodipodi:docname="applogo1.svg"
   xmlns:inkscape="http://www.inkscape.org/namespaces/inkscape"
   xmlns:sodipodi="http://sodipodi.sourceforge.net/DTD/sodipodi-0.dtd"
   xmlns="http://www.w3.org/2000/svg"
   xmlns:svg="http://www.w3.org/2000/svg"><sodipodi:namedview
     id="namedview1"
     pagecolor="#ffffff"
     bordercolor="#000000"
     borderopacity="0.25"
     inkscape:showpageshadow="2"
     inkscape:pageopacity="0.0"
     inkscape:pagecheckerboard="0"
     inkscape:deskcolor="#d1d1d1"
     inkscape:document-units="mm"
     inkscape:zoom="0.72248176"
     inkscape:cx="397.24186"
     inkscape:cy="561.25984"
     inkscape:window-width="1920"
     inkscape:window-height="1046"
     inkscape:window-x="-11"
     inkscape:window-y="-11"
     inkscape:window-maximized="1"
     inkscape:current-layer="layer1" /><defs
     id="defs1"><rect
       x="287.89654"
       y="737.73489"
       width="214.53829"
       height="41.52354"
       id="rect2" /></defs><g
     inkscape:label="Layer 1"
     inkscape:groupmode="layer"
     id="layer1"><path
       style="fill:#000000;stroke-width:0.790951"
       d="m 144.29526,156.38721 c -0.29081,-0.2451 -0.52875,-0.72221 -0.52875,-1.06023 0,-1.23848 -0.66259,-2.1137 -2.07972,-2.74715 -1.92951,-0.86247 -2.42253,-0.82412 -2.20084,0.17122 l 0.17641,0.792 -0.82338,-0.68374 c -0.60953,-0.50615 -0.8243,-0.94919 -0.8269,-1.70583 -0.002,-0.56215 -0.0958,-1.44803 -0.20851,-1.96863 -0.1624,-0.74989 -0.11189,-0.92295 0.24313,-0.833 0.24648,0.0624 0.58614,0.43356 0.75481,0.82469 0.16867,0.39114 0.34547,0.75462 0.39288,0.80775 0.25065,0.28084 2.67126,-1.27916 2.85601,-1.8406 0.50245,-1.52695 -0.99253,-1.89756 -3.18541,-0.78969 -1.37094,0.69262 -1.58615,0.7359 -2.01869,0.40599 -0.41086,-0.31338 -0.41945,-0.44877 -0.0568,-0.89425 0.47865,-0.58796 2.69586,-1.48919 3.64331,-1.48089 1.38165,0.0121 3.23707,1.9647 2.88464,3.03571 -0.0998,0.30345 -0.78576,0.96809 -1.52424,1.47696 l -1.34271,0.92524 1.09889,0.62908 c 2.09637,1.2001 2.75937,1.91151 3.29383,3.53438 0.28641,0.8697 0.52076,1.64098 0.52076,1.71395 0,0.27883 -0.56173,0.11433 -1.06872,-0.31296 z m -78.26977,-0.8867 c -0.257857,-0.19668 -0.788057,-1.66385 -1.178222,-3.26038 -0.390165,-1.59653 -0.819846,-3.03911 -0.954846,-3.20571 -0.195436,-0.24119 -1.127587,-0.23836 -4.574173,0.0139 -3.552261,0.26001 -4.418506,0.26 -4.829297,-3e-5 -1.021522,-0.64664 -0.505463,-1.1339 1.096895,-1.03568 0.263583,0.0162 2.276403,-0.12949 4.472931,-0.32366 3.44137,-0.30423 7.645895,-0.49506 15.009907,-0.68127 1.388811,-0.0351 1.771871,0.0373 1.852473,0.35031 0.156611,0.60812 -2.341437,0.97425 -7.211336,1.05694 -2.335848,0.0396 -4.310223,0.12034 -4.387502,0.17928 -0.07728,0.0589 -0.0062,0.42892 0.158056,0.82217 0.253454,0.60697 0.965657,3.29783 1.52759,5.77156 0.167663,0.73809 -0.25026,0.87104 -0.982476,0.31256 z m 26.861412,-0.88037 c -0.307514,-0.13662 -0.559116,-0.53539 -0.559116,-0.88616 0,-0.35078 -0.381395,-1.7203 -0.847545,-3.0434 l -0.847546,-2.40562 -3.02396,0.0703 c -2.562188,0.0596 -3.077482,0.007 -3.374464,-0.34447 -0.192778,-0.22812 -0.283704,-0.46326 -0.202058,-0.52252 0.280741,-0.20378 12.740811,-0.70694 13.313565,-0.53763 0.542433,0.16035 0.539907,0.1881 -0.047,0.51756 -0.341097,0.19148 -1.275616,0.35907 -2.076714,0.37243 -0.801097,0.0133 -1.81597,0.10103 -2.255276,0.19482 -0.938118,0.20029 -0.939231,0.62602 -0.0087,3.31439 0.786067,2.27089 1.052104,3.53513 0.741998,3.52609 -0.139751,-0.004 -0.505697,-0.11919 -0.813211,-0.25579 z m 20.390638,-0.85081 c -0.27613,-0.21062 -0.50206,-0.52739 -0.50206,-0.70395 0,-0.177 -0.5282,-0.39659 -1.17743,-0.48949 -0.99276,-0.14205 -1.26198,-0.083 -1.71635,0.37645 -0.85427,0.86382 -1.6638,0.46718 -1.39907,-0.68548 0.76748,-3.34161 2.3919,-5.30631 3.30792,-4.00084 0.35303,0.50315 2.57632,5.41799 2.58003,5.70348 0.004,0.30769 -0.56343,0.20378 -1.09304,-0.20017 z m -1.55045,-3.21172 c -0.44183,-1.15526 -0.51775,-1.22287 -0.88107,-0.7847 -0.51035,0.61551 -0.36165,1.65357 0.25211,1.75988 0.89598,0.15518 0.99973,-0.006 0.62896,-0.97518 z m 11.37892,3.13079 c -0.52079,-0.37008 -0.69692,-0.89982 -0.87097,-2.61967 -0.11999,-1.18568 -0.30066,-2.51218 -0.40149,-2.94778 -0.14033,-0.60626 -0.0699,-0.79199 0.30023,-0.79199 0.59875,0 1.18504,1.22361 1.18504,2.47326 0,0.51612 0.13536,0.93839 0.30082,0.93839 0.4418,0 3.21363,-2.82156 3.21363,-3.2713 0,-0.50136 1.15118,-0.50019 1.40354,0.001 0.35026,0.6962 0.21036,0.96831 -1.28903,2.5073 -0.83705,0.85914 -1.35889,1.60924 -1.19811,1.72214 0.15667,0.11 0.822,0.33092 1.47852,0.49092 2.45651,0.59868 1.85444,1.35754 -0.67662,0.85281 -1.95917,-0.39067 -2.27426,-0.31953 -2.27426,0.51353 0,0.71561 -0.30117,0.74929 -1.1713,0.13097 z m -21.92167,-0.12643 c -0.32123,-0.24502 -0.47019,-1.03389 -0.50821,-2.69142 -0.0311,-1.35391 -0.21996,-2.5529 -0.447,-2.83723 -0.338061,-0.42336 -0.28672,-0.55898 0.36606,-0.96702 2.18861,-1.36805 4.98646,-0.74212 5.63094,1.25975 0.24674,0.76643 -1.00186,2.03454 -2.23583,2.27077 -1.23574,0.23655 -0.96014,0.6021 0.95925,1.27234 0.96743,0.33782 1.90701,0.82522 2.08797,1.08313 0.43098,0.61422 0.11376,0.59261 -2.05903,-0.14031 -2.44066,-0.82328 -2.74636,-0.79615 -2.74636,0.24369 0,0.91152 -0.31618,1.06431 -1.04779,0.5063 z m 3.25729,-4.62424 c 0.21753,-0.19993 0.34854,-0.61627 0.29112,-0.92521 -0.11408,-0.61377 -1.03389,-0.8337 -2.39616,-0.57291 -0.70105,0.1342 -0.76363,0.23835 -0.56125,0.93403 0.12528,0.43064 0.26096,1.00231 0.30151,1.27037 0.0406,0.26806 0.0921,0.52226 0.11451,0.5649 0.0635,0.12067 1.80826,-0.86496 2.25027,-1.27118 z m 26.8304,4.08339 c -0.50626,-0.44653 -0.9646,-1.51797 -1.63486,-3.82182 -0.3064,-1.05312 -0.27518,-1.22681 0.29922,-1.66492 0.89541,-0.68296 4.23521,-0.92376 4.85915,-0.35034 0.57989,0.53294 0.34113,0.66698 -1.60617,0.90177 -0.90445,0.10905 -1.71542,0.25242 -1.80218,0.31859 -0.0868,0.0662 -0.0611,0.41399 0.0571,0.77294 0.20858,0.63388 0.26478,0.64815 1.95534,0.4966 1.29538,-0.11612 1.73933,-0.0776 1.73569,0.15071 -0.0103,0.65029 -0.61019,0.97378 -2.03231,1.09604 -1.50328,0.12924 -1.62618,0.2151 -1.28331,0.8966 0.14648,0.29115 0.65459,0.38546 2.07671,0.38546 1.03554,0 1.8828,0.0962 1.8828,0.21386 0,0.43197 -0.9297,0.78126 -2.44226,0.91754 -1.26285,0.11379 -1.64694,0.0555 -2.06484,-0.31303 z m -60.784138,-0.35537 c -0.285363,-0.31075 -0.412345,-0.63896 -0.282181,-0.72938 0.130163,-0.0904 1.643953,-0.21689 3.363979,-0.28107 2.880024,-0.10745 3.154226,-0.0783 3.467559,0.36822 0.46269,0.65942 -0.101424,0.90114 -2.121947,0.90925 -0.878612,0.003 -2.117472,0.072 -2.753023,0.1522 -0.967628,0.12207 -1.239924,0.0539 -1.674387,-0.41922 z m 45.290848,-0.31678 c -0.64472,-0.49175 -1.08629,-1.07145 -1.08629,-1.42611 0,-0.75544 1.1717,-2.06085 2.3129,-2.57684 0.81085,-0.36662 0.91469,-0.36554 1.41318,0.0147 0.50437,0.3847 0.48878,0.42465 -0.24931,0.63869 -0.93593,0.2714 -1.30753,0.60959 -1.88226,1.71298 -0.38966,0.7481 -0.37238,0.85719 0.18608,1.17491 0.59559,0.33885 1.13706,0.32902 3.57095,-0.0648 1.20001,-0.19418 1.31904,0.0586 0.38693,0.82171 -0.48622,0.39806 -1.02102,0.53333 -2.10867,0.53333 -1.23126,0 -1.62569,-0.12849 -2.54351,-0.82855 z"
       id="path1" /><path
       style="fill:#bc4949;fill-opacity:0.369048;stroke-width:0.525774"
       d="m 76.887526,176.25221 c 0,-0.0601 0.906851,-0.93997 2.015222,-1.95526 3.090255,-2.83076 4.647626,-4.32944 4.612223,-4.4384 -0.0177,-0.0545 0.06676,-0.099 0.187669,-0.099 0.120913,0 0.219842,-0.0554 0.219842,-0.12317 0,-0.0677 0.353716,-0.45218 0.786037,-0.85431 0.432317,-0.40213 0.770594,-0.74778 0.751716,-0.7681 -0.01889,-0.0203 0.09921,-0.15579 0.262409,-0.30103 0.163205,-0.14524 0.243437,-0.18063 0.178289,-0.0786 -0.07953,0.12453 -0.06285,0.1545 0.05074,0.0912 0.09307,-0.0518 0.16921,-0.15283 0.16921,-0.22446 0,-0.0716 0.164879,-0.27879 0.366405,-0.46035 0.201521,-0.18155 0.366399,-0.39032 0.366399,-0.46392 0,-0.0736 0.05601,-0.10265 0.124475,-0.0645 0.06846,0.0381 0.210306,-0.0752 0.31521,-0.25178 0.10491,-0.1766 0.246755,-0.2899 0.315216,-0.25178 0.06846,0.0381 0.124469,0.0155 0.124469,-0.0502 0,-0.0657 0.412204,-0.50379 0.916012,-0.97344 0.503803,-0.46966 1.047078,-1.01356 1.207276,-1.20866 0.160203,-0.19511 0.36194,-0.35474 0.448315,-0.35474 0.08638,0 0.285065,-0.0924 0.44154,-0.20534 0.273195,-0.19719 0.271395,-0.19962 -0.04526,-0.0614 -0.454685,0.19851 -0.411573,-0.003 0.07461,-0.3492 0.766484,-0.54535 1.055548,-0.79763 0.985874,-0.8604 -0.0385,-0.0347 0.10522,-0.20692 0.319421,-0.38271 0.214206,-0.17579 0.333191,-0.23049 0.264414,-0.12156 -0.10754,0.17032 -0.09055,0.17285 0.121312,0.0181 0.135497,-0.099 0.203293,-0.2428 0.150653,-0.31953 -0.05808,-0.0847 -0.007,-0.10884 0.129958,-0.0615 0.150715,0.0521 0.219546,0.005 0.207244,-0.14261 -0.01014,-0.12135 0.06892,-0.2043 0.175674,-0.18435 0.106749,0.02 0.159743,-0.0138 0.117761,-0.075 -0.08975,-0.13084 0.58415,-0.81954 0.801935,-0.81954 0.0821,0 0.120907,-0.0446 0.08622,-0.099 -0.03468,-0.0545 0.102001,-0.24758 0.303733,-0.42913 0.201737,-0.18156 0.314961,-0.24665 0.251608,-0.14465 -0.07751,0.12477 -0.05905,0.15419 0.05641,0.0899 0.09438,-0.0525 0.138234,-0.14417 0.09746,-0.20361 -0.0887,-0.1293 0.994654,-1.19407 1.214909,-1.19407 0.08456,0 0.195611,-0.11884 0.246778,-0.26408 0.05118,-0.14525 0.185446,-0.26408 0.298398,-0.26408 0.131327,0 0.171627,-0.0792 0.111777,-0.21972 -0.05146,-0.12085 -0.0329,-0.1865 0.0412,-0.1459 0.0742,0.0406 0.21987,-0.009 0.32381,-0.11038 0.10394,-0.1013 0.16208,-0.18419 0.12919,-0.18419 -0.0329,0 0.24657,-0.29709 0.62102,-0.6602 0.37444,-0.36311 0.76149,-0.6602 0.8601,-0.6602 0.0986,0 0.1628,-0.0743 0.14265,-0.16504 -0.0202,-0.0908 0.0507,-0.14873 0.15746,-0.12877 0.10675,0.02 0.15438,-0.0216 0.10584,-0.0924 -0.0485,-0.0708 0.11144,-0.26166 0.35551,-0.42422 0.24407,-0.16257 0.44376,-0.34969 0.44376,-0.41583 0,-0.0661 0.183151,-0.27778 0.407001,-0.47031 0.22384,-0.19254 0.5536,-0.52148 0.7328,-0.73098 0.1792,-0.20951 0.32582,-0.34589 0.32582,-0.30309 0,0.0428 0.16488,-0.0707 0.3664,-0.25227 0.20152,-0.18156 0.36641,-0.37999 0.36641,-0.44096 0,-0.061 0.16698,-0.20941 0.37107,-0.32989 0.20937,-0.12359 0.32663,-0.28384 0.26908,-0.36772 -0.0666,-0.0971 -0.0179,-0.11963 0.14013,-0.065 0.13318,0.046 0.22893,0.0413 0.21281,-0.0106 -0.0516,-0.16573 0.38964,-0.68845 0.58106,-0.68845 0.10152,0 0.18459,-0.0796 0.18459,-0.17685 0,-0.0973 0.21434,-0.35757 0.47632,-0.57845 0.26198,-0.2209 0.67418,-0.63053 0.91601,-0.9103 0.24183,-0.27977 0.64744,-0.70277 0.90136,-0.93999 0.48155,-0.44989 0.45438,-0.51264 -0.13461,-0.3109 -0.19334,0.0662 -0.43844,0.072 -0.54467,0.0129 -0.13664,-0.0761 -0.004,-0.1942 0.45142,-0.40379 0.35451,-0.16294 0.71074,-0.36842 0.79162,-0.45663 0.0809,-0.0882 0.44385,-0.34656 0.80658,-0.5741 0.36275,-0.22754 0.85975,-0.5604 1.10445,-0.7397 0.40629,-0.29767 0.44492,-0.30431 0.44492,-0.0765 0,0.13722 -0.0422,0.22598 -0.0938,0.19724 -0.0516,-0.0288 -0.25184,0.10751 -0.44492,0.30278 -0.19309,0.19527 -0.23406,0.2741 -0.091,0.17517 0.4125,-0.28534 0.4662,-0.0612 0.0864,0.36074 -0.19055,0.21169 -1.5336,1.54109 -2.98456,2.95422 -1.45096,1.41314 -4.21853,4.10997 -6.150171,5.99298 -1.93163,1.883 -4.408168,4.28519 -5.50341,5.33821 -1.095249,1.05301 -3.997395,3.87535 -6.449221,6.27186 -8.060769,7.8789 -9.520042,9.27911 -9.755228,9.36042 -0.334512,0.11564 -0.794751,0.0989 -0.794751,-0.0289 z m -3.879498,-1.64442 c -0.320025,-0.16329 -0.673937,-0.44468 -0.786471,-0.62531 -0.193578,-0.31071 -0.170114,-0.36042 0.435302,-0.92229 0.595744,-0.55288 3.304983,-3.13513 6.078069,-5.79316 0.653332,-0.62622 1.524159,-1.46065 1.935172,-1.85427 0.411014,-0.39363 0.706793,-0.77984 0.657288,-0.85825 -0.0495,-0.0784 -0.04196,-0.10387 0.01676,-0.0566 0.05872,0.0473 0.513237,-0.3092 1.010031,-0.79224 0.496794,-0.48304 1.036408,-1.00188 1.199142,-1.15296 0.162734,-0.15109 0.724573,-0.7111 1.248528,-1.24447 1.364189,-1.38869 1.460596,-1.48387 3.271244,-3.22948 0.901216,-0.86884 1.968336,-1.90372 2.371378,-2.29973 0.878267,-0.86295 0.982888,-0.96398 3.224358,-3.11394 0.967306,-0.92781 1.857666,-1.78614 1.978578,-1.90739 0.120913,-0.12126 0.813419,-0.80759 1.538902,-1.52517 0.72548,-0.7176 1.52665,-1.51736 1.78039,-1.77726 1.911921,-1.95838 1.766341,-1.85896 2.722001,-1.85896 0.47934,0 0.84783,0.0446 0.81886,0.099 -0.40897,0.76884 -0.64581,1.08932 -0.80499,1.08932 -0.10598,0 -0.19269,0.0473 -0.19269,0.10514 0,0.0578 -0.57709,0.64486 -1.28242,1.30452 -1.472801,1.37744 -4.156958,3.95886 -4.594444,4.4186 -0.676934,0.71135 -3.653263,3.65111 -4.994297,4.93293 -0.30391,0.29048 -0.636819,0.61839 -0.739806,0.72869 -0.360423,0.386 -1.500246,1.52717 -2.833032,2.83636 -1.686506,1.65666 -4.272113,4.23149 -4.755576,4.73576 -0.201522,0.21019 -0.564262,0.57102 -0.806089,0.80185 -1.430456,1.36535 -2.309523,2.23275 -3.15281,3.11096 -0.523003,0.54466 -1.183586,1.19825 -1.467962,1.45243 -0.630859,0.56385 -2.604831,2.56493 -3.043635,3.08543 -0.175562,0.20824 -0.283234,0.43106 -0.239271,0.49514 0.113172,0.16497 0.06086,0.14866 -0.59251,-0.18473 z m -2.920433,-3.75628 c -0.04865,-0.0438 -0.08846,-0.28146 -0.08846,-0.52807 0,-0.46005 0.345402,-0.82149 8.425136,-8.81637 0.660531,-0.65359 1.920524,-1.90404 2.799983,-2.77878 0.87946,-0.87474 3.577599,-3.54609 5.995862,-5.93634 8.495346,-8.39693 11.730293,-11.63499 12.302183,-12.31406 0.3175,-0.37699 0.606141,-0.65941 0.641451,-0.62761 0.0353,0.0318 -0.192201,0.34244 -0.505551,0.6903 -0.70495,0.78259 -1.30739,1.56486 -2.06319,2.67908 -0.3202,0.47204 -0.80696,1.06793 -1.081689,1.3242 -0.274729,0.25627 -0.994155,0.96529 -1.598718,1.5756 -0.604569,0.61031 -1.600325,1.58899 -2.212787,2.17484 -0.612468,0.58584 -1.429891,1.39197 -1.816492,1.79139 -0.386602,0.39942 -1.377467,1.37981 -2.201919,2.17865 -0.824453,0.79883 -1.655851,1.60894 -1.847551,1.80024 -0.843591,0.84183 -2.454793,2.42541 -3.05993,3.00749 -0.362741,0.34892 -0.938802,0.93265 -1.280137,1.29718 -0.341335,0.36452 -0.828637,0.86316 -1.082892,1.10806 -1.014711,0.97741 -2.627684,2.59484 -3.2295,3.23842 -0.904807,0.9676 -5.848504,6.02721 -6.043833,6.18553 -0.08959,0.0726 -0.568033,0.55907 -1.0632,1.081 -0.495166,0.52192 -0.94011,0.91308 -0.988764,0.86925 z m 32.935115,-22.87899 c 0.63055,-0.21111 1.29008,-0.41866 1.46562,-0.46123 0.27991,-0.0679 0.27409,-0.0529 -0.0473,0.12149 -0.20152,0.10939 -0.48182,0.201 -0.62288,0.20357 -0.14107,0.002 -0.25649,0.0547 -0.25649,0.11581 0,0.12844 -1.00107,0.4201 -1.40934,0.4106 -0.15186,-0.004 0.23978,-0.17914 0.87033,-0.39024 z m 0.39246,-2.84405 c 0,-0.0395 0.24732,-0.3171 0.54961,-0.61694 1.25806,-1.24792 2.35091,-2.31085 3.01946,-2.93678 0.39112,-0.36617 1.04782,-1.01485 1.45934,-1.4415 0.74053,-0.76775 0.74377,-0.77495 0.31482,-0.70031 -3.02972,0.52719 -4.40644,0.64594 -5.8155,0.50158 -0.79394,-0.0813 -1.70498,-0.14788 -2.02453,-0.14788 -0.31955,0 -0.58099,-0.0239 -0.58099,-0.053 0,-0.0291 0.31327,-0.33147 0.69616,-0.67187 0.68736,-0.61107 1.43501,-0.99167 1.94803,-0.99167 0.14488,0 0.61498,-0.28569 1.04468,-0.63486 0.42969,-0.34917 1.57269,-1.20822 2.53999,-1.909 2.67267,-1.93626 3.89503,-2.84924 4.58005,-3.42084 0.34259,-0.28587 0.62289,-0.48443 0.62289,-0.44126 0,0.0854 0.10814,0.0127 0.87266,-0.58677 0.27844,-0.21833 0.72362,-0.48989 0.98929,-0.60346 0.26567,-0.11358 0.48303,-0.22817 0.48303,-0.25465 0,-0.0769 -0.3487,-0.008 -0.55935,0.11048 -0.10613,0.0597 -0.23612,0.0696 -0.28888,0.0221 -0.0527,-0.0475 0.001,-0.1417 0.11967,-0.20926 0.11858,-0.0676 0.1618,-0.12375 0.096,-0.12486 -0.25806,-0.004 -0.79341,0.32675 -1.52048,0.94042 -0.41838,0.35311 -0.82519,0.64202 -0.90403,0.64202 -0.0788,0 -0.24767,0.0361 -0.37518,0.0802 -0.18987,0.0656 -0.23182,-0.0256 -0.23182,-0.50419 0,-1.25647 0.34917,-1.87516 1.80459,-3.19751 1.2546,-1.13988 1.68587,-1.39541 2.62008,-1.55237 0.13622,-0.0229 1.29039,-0.93565 2.56483,-2.02836 2.00359,-1.71789 2.794,-2.31217 3.85605,-2.89923 0.30278,-0.16736 -0.70429,0.97035 -1.24577,1.40739 -0.24183,0.19518 -1.19552,1.01314 -2.11932,1.8177 -0.9238,0.80455 -1.73903,1.46283 -1.81162,1.46283 -0.0726,0 0.0209,0.11153 0.20776,0.24784 l 0.33975,0.24785 -0.65327,0.0933 c -1.02254,0.14607 -1.75248,0.36355 -1.75248,0.52215 0,0.15155 1.98798,0.15072 4.93977,-0.002 1.31056,-0.0678 1.54268,-0.11672 1.87621,-0.3952 0.20935,-0.17479 0.50871,-0.3178 0.66524,-0.3178 0.2727,0 0.27128,-0.0138 -0.034,-0.3301 -0.17522,-0.18155 -0.42211,-0.33427 -0.54864,-0.33938 -0.41888,-0.0169 0.32265,-0.23558 0.83252,-0.24552 0.32587,-0.006 0.47632,-0.0733 0.47632,-0.21179 0,-0.11138 0.19786,-0.37675 0.43969,-0.58972 0.24182,-0.21297 0.44177,-0.43378 0.44432,-0.4907 0.0151,-0.33627 0.72559,-0.79509 1.32569,-0.85602 1.21811,-0.1237 1.25282,0.002 0.2598,0.93897 l -0.89538,0.84507 0.90982,-0.0857 c 0.78534,-0.0739 1.99885,-0.3094 2.89749,-0.56219 0.23589,-0.0663 0.23761,-0.0597 0.0178,0.0685 -0.13387,0.0781 -0.91319,0.28457 -1.73184,0.45888 -1.47943,0.31498 -1.85613,0.45772 -1.50561,0.5705 0.10076,0.0324 0.1832,0.13971 0.1832,0.23842 0,0.11326 0.1177,0.15906 0.319,0.12413 0.53851,-0.0934 0.0872,0.14781 -0.61212,0.32724 -0.36275,0.0931 -0.84399,0.28735 -1.06944,0.43177 -0.22545,0.14441 -0.65414,0.29243 -0.95265,0.32893 -0.48616,0.0594 -0.64946,0.1962 -1.56629,1.31168 -0.56295,0.68492 -1.63303,1.82253 -2.37795,2.52801 -0.74493,0.70548 -1.39123,1.38029 -1.43624,1.49957 -0.045,0.11927 -0.27749,0.28988 -0.51663,0.37912 -0.23915,0.0892 -0.43481,0.24418 -0.43481,0.3443 0,0.10012 -0.10282,0.18204 -0.2285,0.18204 -0.12567,0 -0.18773,0.0594 -0.13791,0.13204 0.0498,0.0726 0.0356,0.13204 -0.0315,0.13204 -0.0672,0 -0.41028,0.3565 -0.76249,0.79223 -0.3522,0.43573 -0.72539,0.79224 -0.82931,0.79224 -0.10391,0 -0.22972,0.11579 -0.27958,0.25732 -0.0499,0.14153 -0.21207,0.29204 -0.36046,0.33447 -0.14839,0.0424 -0.30994,0.17916 -0.359,0.30384 -0.0491,0.12469 -0.12913,0.30502 -0.17793,0.40074 -0.0716,0.14037 0.19079,0.15924 1.35579,0.0975 0.95111,-0.0504 1.3444,-0.0341 1.15139,0.0477 -0.16121,0.0684 -0.65586,0.12879 -1.09921,0.13429 -0.44335,0.006 -1.0699,0.077 -1.39233,0.15879 -0.4999,0.12686 -0.54308,0.16428 -0.29312,0.25406 0.19974,0.0717 0.22308,0.11092 0.0733,0.12294 -0.135,0.0108 -0.0926,0.0637 0.10992,0.13707 0.48402,0.17527 0.40539,0.32725 -0.27381,0.52919 -0.33197,0.0987 -0.77186,0.29872 -0.97754,0.44448 -0.29531,0.20927 -0.73099,0.2904 -2.07118,0.3857 -1.7348,0.12336 -2.89161,0.31128 -2.74262,0.4455 0.0459,0.0413 0.84729,-0.0289 1.78094,-0.15605 0.93365,-0.12715 1.72,-0.20943 1.74745,-0.18284 0.0424,0.0411 -2.45953,2.9126 -3.2757,3.75956 -0.14745,0.15301 -0.29321,0.33489 -0.32392,0.40418 -0.0718,0.162 -1.03019,0.92572 -1.93573,1.54257 -0.60306,0.41079 -1.41775,0.64644 -1.41775,0.41009 z m 4.7456,-6.25307 c 0.49437,-0.0555 0.93173,-0.18234 1.02593,-0.29754 0.0903,-0.11044 0.34098,-0.25501 0.55702,-0.32126 0.32516,-0.0997 0.36301,-0.1556 0.21984,-0.32456 -0.0951,-0.11227 -0.33603,-0.30538 -0.53534,-0.42913 -0.3576,-0.22205 -0.3494,-0.22501 0.62289,-0.22501 0.68953,0 0.98581,-0.0495 0.98708,-0.16505 0.001,-0.0908 0.38023,-0.52259 0.84273,-0.95958 2.75932,-2.60713 2.87134,-2.72607 2.67197,-2.83708 -0.13749,-0.0765 -0.0292,-0.13921 0.35184,-0.20361 0.46865,-0.0792 0.7829,-0.32838 2.115,-1.67702 0.86051,-0.87119 1.68624,-1.7547 1.83497,-1.96336 0.25915,-0.3636 0.25947,-0.38317 0.008,-0.47027 -0.28043,-0.097 -0.64041,-0.10394 -2.03666,-0.0396 -1.1099,0.0512 -2.05176,0.3937 -2.08216,0.7572 -0.0169,0.20224 0.046,0.2505 0.26049,0.19996 0.58266,-0.13727 0.24979,0.22328 -0.70651,0.76527 -0.54411,0.30837 -1.23954,0.75243 -1.54539,0.98679 -0.30586,0.23436 -0.73455,0.45987 -0.95265,0.50113 -0.39504,0.0747 -1.12856,0.56448 -3.72167,2.48488 -0.75067,0.55592 -1.94364,1.43553 -2.65104,1.95468 -0.70741,0.51914 -1.24565,1.00301 -1.19609,1.07525 0.0573,0.0836 0.17865,0.0713 0.33354,-0.0337 0.20226,-0.13717 0.21361,-0.13483 0.0671,0.0138 -0.1181,0.11981 -0.13079,0.2556 -0.0384,0.41109 0.12201,0.20538 0.0239,0.24975 -0.84958,0.38418 -0.54314,0.0836 -1.1524,0.23528 -1.35392,0.33708 -0.3246,0.16397 -0.0654,0.18436 2.2717,0.17863 1.45096,-0.004 3.02588,-0.05 3.49982,-0.10319 z m -4.08608,-0.9373 c 0.0498,-0.0726 0.0207,-0.13204 -0.0646,-0.13204 -0.0854,0 -0.15522,0.0594 -0.15522,0.13204 0,0.0726 0.0291,0.13203 0.0646,0.13203 0.0356,0 0.10539,-0.0594 0.1552,-0.13203 z m 16.37024,-9.99366 c 0.22609,-0.19514 0.41107,-0.41046 0.41107,-0.47849 0,-0.18412 -1.46084,-0.0381 -2.05186,0.2051 -0.28213,0.11609 -0.66232,0.24979 -0.84486,0.2971 -0.63588,0.16482 -0.15608,0.33109 0.9554,0.33109 1.01489,0 1.1575,-0.0331 1.53025,-0.3548 z m -10.72761,16.94129 c 0,-0.10893 0.066,-0.23478 0.14656,-0.27966 0.0806,-0.0449 0.14656,0.007 0.14656,0.11645 0,0.10893 -0.066,0.23478 -0.14656,0.27967 -0.0806,0.0449 -0.14656,-0.007 -0.14656,-0.11646 z m -0.9327,-0.2789 c 0.0462,-0.10852 0.1266,-0.17553 0.1786,-0.14893 0.052,0.0266 0.22647,-0.072 0.38769,-0.2191 0.16688,-0.15228 0.19844,-0.22537 0.0733,-0.16972 -0.12092,0.0538 -0.0794,-0.0114 0.0922,-0.14476 0.17165,-0.13339 0.55247,-0.55591 0.84628,-0.93893 0.29382,-0.38303 0.66692,-0.81597 0.82913,-0.9621 0.16219,-0.14613 0.25563,-0.32295 0.20763,-0.39292 -0.048,-0.07 -0.0154,-0.12722 0.0724,-0.12722 0.0878,0 0.36458,-0.21023 0.615,-0.46718 0.25042,-0.25695 0.58995,-0.53211 0.75452,-0.61145 0.29784,-0.14361 0.29792,-0.14273 0.0166,0.19087 -2.34606,2.7815 -2.94822,3.45207 -3.40346,3.79014 -0.59198,0.4396 -0.79769,0.50143 -0.66985,0.2013 z m -3.5301,-4.27594 c 0.0766,-0.0638 0.469,-0.14503 0.87204,-0.18057 0.70801,-0.0624 0.71793,-0.0587 0.29312,0.10999 -0.49788,0.19773 -1.38217,0.25129 -1.16516,0.0706 z m 8.15942,-0.67629 c 0.0224,-0.10893 0.0737,-0.22777 0.11398,-0.26408 0.0403,-0.0363 0.1822,-0.24079 0.31532,-0.4544 0.24312,-0.39011 0.85717,-0.71816 0.85717,-0.45793 0,0.0745 -0.29861,0.41425 -0.66359,0.75497 -0.36497,0.34073 -0.64527,0.53037 -0.62288,0.42144 z m 4.81995,-4.06955 c 0.93581,-0.41243 1.82197,-0.839 1.96925,-0.94793 0.51693,-0.38235 -0.24379,0.62348 -0.87561,1.15771 -0.32053,0.27103 -0.50217,0.39614 -0.40363,0.27804 0.1611,-0.19309 0.0643,-0.19021 -0.95959,0.0285 -0.62632,0.13378 -1.20471,0.24106 -1.28532,0.2384 -0.0806,-0.003 0.6191,-0.34228 1.5549,-0.75472 z m 1.30305,-1.12802 c 0,-0.0315 0.26779,-0.40499 0.59508,-0.82989 0.32728,-0.4249 1.15874,-1.51527 1.84767,-2.42304 0.68893,-0.90777 1.64258,-2.15554 2.11921,-2.77282 0.47662,-0.61728 0.9263,-1.21096 0.99928,-1.31929 0.073,-0.10833 0.1749,-0.15893 0.22649,-0.11244 0.0516,0.0465 -0.27063,0.55104 -0.71606,1.12123 -1.8006,2.30495 -3.03422,4.02943 -3.36607,4.70545 -0.33376,0.67991 -0.89176,1.28047 -1.44911,1.55966 -0.14107,0.0707 -0.25649,0.10268 -0.25649,0.0711 z m -7.14729,-3.50609 c 0.2632,-0.21187 0.50241,-0.3637 0.53159,-0.33741 0.0742,0.0668 -0.72684,0.72261 -0.88265,0.72261 -0.0701,0 0.0879,-0.17334 0.35106,-0.3852 z m 18.62624,-6.74491 c 0.31543,-0.41629 0.4442,-0.66074 0.374,-0.71 -0.0301,-0.0211 -0.84618,-0.59096 -1.81348,-1.26628 -1.52306,-1.06331 -2.12901,-1.62931 -1.93319,-1.80572 0.0284,-0.0256 0.77453,0.47517 1.65799,1.11286 0.88346,0.63769 1.81792,1.29521 2.0766,1.46114 0.25867,0.16594 0.4703,0.37513 0.4703,0.46487 0,0.0897 -0.24352,0.36793 -0.54116,0.6182 -0.40579,0.3412 -0.4786,0.37245 -0.29106,0.12493 z m -7.31795,-3.11655 c -0.38299,-0.53938 -0.56914,-0.70038 -0.68701,-0.59417 -0.0889,0.0801 -0.24743,0.14567 -0.35223,0.14567 -0.29112,0 -0.26082,-1.6529 0.0344,-1.87636 0.12371,-0.0936 0.30508,-0.23073 0.40304,-0.30464 0.098,-0.0739 0.34301,-0.20358 0.54453,-0.28815 0.23094,-0.0969 0.27998,-0.15707 0.13263,-0.1627 -0.12857,-0.005 -0.34742,-0.12208 -0.48633,-0.26037 -0.21406,-0.21309 -0.22358,-0.29324 -0.0625,-0.5256 0.10453,-0.1508 0.26123,-0.29878 0.34821,-0.32885 0.19205,-0.0664 3.8787,3.14962 3.87833,3.38323 -1.4e-4,0.091 -0.30969,0.34363 -0.6879,0.56149 -0.81498,0.46947 -1.21713,0.6267 -1.21713,0.47584 0,-0.16654 -1.16366,-0.85791 -1.27505,-0.75755 -0.0535,0.0482 0.11266,0.28273 0.36923,0.52121 0.36307,0.33747 0.42745,0.46875 0.29043,0.59219 -0.35925,0.32366 -0.70632,0.16 -1.23264,-0.58124 z"
       id="path2" /></g></svg>
